<?xml version="1.0" standalone="no"?>
<!DOCTYPE svg PUBLIC "-//W3C//DTD SVG 20010904//EN"
 "http://www.w3.org/TR/2001/REC-SVG-20010904/DTD/svg10.dtd">
<svg version="1.0" xmlns="http://www.w3.org/2000/svg"
 width="1030.000000pt" height="1030.000000pt" viewBox="0 0 1030.000000 1030.000000"
 preserveAspectRatio="xMidYMid meet">
<metadata>
Created by potrace 1.14, written by Peter Selinger 2001-2017
</metadata>
<g transform="translate(0.000000,1030.000000) scale(0.100000,-0.100000)"
fill="#000000" stroke="none">
<path d="M2529 6148 c0 -959 -2 -1759 -4 -1779 -4 -54 -15 -144 -20 -170 -14
-71 -18 -90 -41 -161 -44 -141 -113 -241 -211 -308 -143 -98 -330 -119 -581
-66 -35 8 -127 43 -175 67 -159 81 -317 245 -412 427 -15 28 -29 52 -31 52 -4
0 -18 -12 -74 -61 -14 -12 -70 -60 -125 -108 -54 -47 -106 -93 -115 -101 -9
-8 -30 -26 -46 -40 -87 -74 -192 -166 -269 -234 -22 -19 -97 -84 -167 -143
-70 -59 -127 -114 -127 -121 -1 -12 10 -31 78 -137 87 -136 227 -282 411 -428
110 -88 472 -270 581 -292 9 -2 46 -12 82 -24 68 -21 291 -67 362 -75 153 -18
214 -21 410 -21 194 0 314 6 380 19 11 2 40 7 65 10 25 3 60 10 78 15 18 5 35
10 37 10 19 2 74 17 155 43 381 121 658 363 839 732 74 150 139 328 158 430 2
11 10 45 17 75 8 31 17 76 21 101 4 25 9 54 11 65 3 11 7 40 10 65 3 25 7 58
10 75 2 16 6 55 9 85 3 30 8 78 11 105 3 28 7 479 9 1003 2 525 5 955 7 957 2
2 61 -141 132 -318 70 -177 134 -335 141 -352 7 -16 136 -336 285 -710 150
-374 278 -693 285 -710 15 -33 487 -1212 515 -1285 9 -25 38 -98 64 -162 l48
-117 296 5 c164 3 300 9 303 12 4 4 22 63 42 132 19 69 65 229 102 355 37 127
107 367 155 535 92 318 188 638 195 650 2 3 6 17 9 31 3 13 21 74 40 134 19
61 61 198 94 305 33 107 97 314 142 460 45 146 97 317 116 380 20 63 39 126
44 140 9 26 62 198 66 215 11 46 49 162 55 169 5 5 12 -1 18 -15 5 -13 28 -64
51 -114 23 -49 52 -112 65 -140 27 -59 366 -794 420 -910 20 -44 47 -102 60
-130 112 -246 328 -712 371 -804 30 -62 54 -115 54 -118 0 -2 19 -43 41 -91
23 -48 68 -145 101 -217 33 -71 73 -157 88 -190 15 -33 66 -143 113 -245 47
-102 101 -219 120 -260 19 -41 44 -95 55 -120 11 -25 32 -70 46 -100 l26 -55
770 -1 c543 0 769 3 766 10 -2 6 -16 40 -31 76 -15 36 -41 99 -57 140 -17 41
-36 89 -43 105 -7 17 -47 113 -88 215 -41 102 -101 248 -132 325 -31 77 -86
212 -122 300 -35 88 -70 174 -78 190 -7 17 -37 89 -65 160 -28 72 -58 146 -67
165 -8 19 -19 44 -24 55 -4 11 -38 94 -75 185 -113 281 -175 434 -189 465 -7
17 -31 75 -53 130 -93 232 -133 331 -142 350 -5 11 -30 72 -56 135 -25 63 -64
160 -86 215 -22 55 -46 114 -53 130 -17 39 -343 840 -429 1055 -37 91 -71 174
-75 185 -37 86 -62 146 -172 417 l-124 308 -912 0 -912 0 16 -43 c16 -42 15
-46 -12 -123 -15 -43 -56 -162 -90 -264 -35 -102 -100 -291 -145 -420 -45
-129 -90 -260 -100 -290 -10 -30 -55 -161 -100 -290 -44 -129 -98 -284 -118
-343 l-37 -108 -22 48 c-13 26 -71 158 -129 293 -58 135 -112 259 -119 275 -8
17 -66 152 -130 300 -65 149 -130 298 -146 333 -16 35 -29 66 -29 68 0 3 -11
30 -25 60 -14 30 -37 82 -51 117 -29 69 -52 121 -95 215 -16 35 -29 67 -29 71
0 4 -9 25 -20 48 l-19 40 -438 3 c-241 1 -747 4 -1125 7 l-688 4 -1 -1743z"/>
</g>
</svg>
